<svg width="230" height="115" viewBox="0 0 230 115" fill="none" xmlns="http://www.w3.org/2000/svg">
<mask id="path-1-inside-1_15_27" fill="white">
<path d="M220 0C225.523 0 230.045 4.48635 229.566 9.98835C227.227 36.8278 215.517 62.1175 196.317 81.3173C174.751 102.884 145.5 115 115 115C84.5001 115 55.2494 102.884 33.6827 81.3173C14.483 62.1175 2.77328 36.8278 0.434285 9.98836C-0.0452012 4.48637 4.47715 1.66885e-05 10 1.58546e-05L70.4544 6.7262e-06C75.9772 5.89227e-06 80.315 4.5682 81.8917 9.86121C83.5158 15.3135 86.4769 20.3318 90.5726 24.4274C97.0511 30.906 105.838 34.5456 115 34.5456C124.162 34.5456 132.949 30.906 139.427 24.4274C143.523 20.3317 146.484 15.3135 148.108 9.8612C149.685 4.56819 154.023 0 159.546 0H220Z"/>
</mask>
<path d="M220 0C225.523 0 230.045 4.48635 229.566 9.98835C227.227 36.8278 215.517 62.1175 196.317 81.3173C174.751 102.884 145.5 115 115 115C84.5001 115 55.2494 102.884 33.6827 81.3173C14.483 62.1175 2.77328 36.8278 0.434285 9.98836C-0.0452012 4.48637 4.47715 1.66885e-05 10 1.58546e-05L70.4544 6.7262e-06C75.9772 5.89227e-06 80.315 4.5682 81.8917 9.86121C83.5158 15.3135 86.4769 20.3318 90.5726 24.4274C97.0511 30.906 105.838 34.5456 115 34.5456C124.162 34.5456 132.949 30.906 139.427 24.4274C143.523 20.3317 146.484 15.3135 148.108 9.8612C149.685 4.56819 154.023 0 159.546 0H220Z" stroke="black" stroke-width="26" mask="url(#path-1-inside-1_15_27)"/>
</svg>
