<svg width="230" height="230" viewBox="0 0 230 230" fill="none" xmlns="http://www.w3.org/2000/svg">
<path d="M220 115C225.523 115 230.045 110.514 229.565 105.013C228.547 93.3334 225.747 81.8586 221.246 70.9914C215.467 57.039 206.996 44.3615 196.317 33.6827C185.639 23.004 172.961 14.5331 159.009 8.75385C145.056 2.97456 130.102 -6.6013e-07 115 0C99.898 6.6013e-07 84.9438 2.97456 70.9914 8.75386C57.039 14.5331 44.3615 23.004 33.6827 33.6827C23.004 44.3615 14.5331 57.039 8.75385 70.9914C4.25252 81.8586 1.45266 93.3334 0.434507 105.013C-0.0451396 110.515 4.47715 115 10 115L65.9224 115C71.4452 115 75.797 110.452 77.1949 105.109C77.6451 103.388 78.2133 101.696 78.897 100.046C80.8608 95.3045 83.7392 90.9966 87.3679 87.3679C90.9966 83.7393 95.3045 80.8608 100.046 78.897C104.787 76.9331 109.868 75.9224 115 75.9224C120.132 75.9224 125.213 76.9331 129.954 78.897C134.695 80.8608 139.003 83.7392 142.632 87.3679C146.261 90.9966 149.139 95.3045 151.103 100.046C151.787 101.696 152.355 103.388 152.805 105.109C154.203 110.452 158.555 115 164.078 115H220Z" fill="black"/>
<path fill-rule="evenodd" clip-rule="evenodd" d="M115 161C140.405 161 161 140.405 161 115C161 89.5949 140.405 69 115 69C89.5949 69 69 89.5949 69 115C69 140.405 89.5949 161 115 161ZM115 146C132.121 146 146 132.121 146 115C146 97.8792 132.121 84 115 84C97.8792 84 84 97.8792 84 115C84 132.121 97.8792 146 115 146Z" fill="black"/>
</svg>
