<svg width="30" height="30" viewBox="0 0 30 30" fill="none" xmlns="http://www.w3.org/2000/svg">
<path d="M15.5 7.63759L17.0146 10.5774L17.3053 11.1416L17.9099 10.9482L21.0596 9.94044L20.0518 13.0901L19.8584 13.6947L20.4226 13.9854L23.3624 15.5L20.4226 17.0146L19.8584 17.3053L20.0518 17.9099L21.0596 21.0596L17.9099 20.0518L17.3053 19.8584L17.0146 20.4226L15.5 23.3624L13.9854 20.4226L13.6947 19.8584L13.0901 20.0518L9.94044 21.0596L10.9482 17.9099L11.1416 17.3053L10.5774 17.0146L7.63759 15.5L10.5774 13.9854L11.1416 13.6947L10.9482 13.0901L9.94044 9.94044L13.0901 10.9482L13.6947 11.1416L13.9854 10.5774L15.5 7.63759Z" stroke="black" stroke-width="1.5"/>
</svg>
