<svg width="30" height="30" viewBox="0 0 30 30" fill="none" xmlns="http://www.w3.org/2000/svg">
<path d="M4 5.84L7.24903 8.1793C7.59804 8.43058 8.06863 8.43058 8.41764 8.1793L11.0824 6.2607C11.4314 6.00941 11.902 6.00941 12.251 6.2607L14.9157 8.1793C15.2647 8.43058 15.7353 8.43058 16.0843 8.1793L18.749 6.2607C19.098 6.00941 19.5686 6.00941 19.9176 6.2607L22.5824 8.1793C22.9314 8.43058 23.402 8.43058 23.751 8.1793L27 5.84" stroke="black" stroke-width="1.5" stroke-linecap="round"/>
<path d="M4 16.88L7.24903 19.2193C7.59804 19.4706 8.06863 19.4706 8.41764 19.2193L11.0824 17.3007C11.4314 17.0494 11.902 17.0494 12.251 17.3007L14.9157 19.2193C15.2647 19.4706 15.7353 19.4706 16.0843 19.2193L18.749 17.3007C19.098 17.0494 19.5686 17.0494 19.9176 17.3007L22.5824 19.2193C22.9314 19.4706 23.402 19.4706 23.751 19.2193L27 16.88" stroke="black" stroke-width="1.5" stroke-linecap="round"/>
<path d="M4 11.36L7.24903 13.6993C7.59804 13.9506 8.06863 13.9506 8.41764 13.6993L11.0824 11.7807C11.4314 11.5294 11.902 11.5294 12.251 11.7807L14.9157 13.6993C15.2647 13.9506 15.7353 13.9506 16.0843 13.6993L18.749 11.7807C19.098 11.5294 19.5686 11.5294 19.9176 11.7807L22.5824 13.6993C22.9314 13.9506 23.402 13.9506 23.751 13.6993L27 11.36" stroke="black" stroke-width="1.5" stroke-linecap="round"/>
<path d="M4 22.4L7.24903 24.7393C7.59804 24.9906 8.06863 24.9906 8.41764 24.7393L11.0824 22.8207C11.4314 22.5694 11.902 22.5694 12.251 22.8207L14.9157 24.7393C15.2647 24.9906 15.7353 24.9906 16.0843 24.7393L18.749 22.8207C19.098 22.5694 19.5686 22.5694 19.9176 22.8207L22.5824 24.7393C22.9314 24.9906 23.402 24.9906 23.751 24.7393L27 22.4" stroke="black" stroke-width="1.5" stroke-linecap="round"/>
</svg>
